<?xml version="1.0" standalone="no"?>
<!DOCTYPE svg PUBLIC "-//W3C//DTD SVG 20010904//EN"
 "http://www.w3.org/TR/2001/REC-SVG-20010904/DTD/svg10.dtd">
<svg version="1.0" xmlns="http://www.w3.org/2000/svg"
 width="817.000000pt" height="876.000000pt" viewBox="0 0 817.000000 876.000000"
 preserveAspectRatio="xMidYMid meet">

<g transform="translate(0.000000,876.000000) scale(0.100000,-0.100000)"
fill="#000000" stroke="none">
<path d="M3 6248 c4 -2732 0 -2552 57 -2892 74 -435 241 -901 468 -1301 79
-139 246 -385 358 -525 138 -173 451 -486 624 -624 327 -260 692 -473 1065
-619 717 -281 1494 -355 2265 -216 653 118 1282 407 1820 835 173 138 486 451
624 624 112 140 279 386 358 525 227 400 394 866 468 1301 57 340 53 160 57
2892 l4 2512 -4086 0 -4086 0 4 -2512z m7757 632 l0 -1440 -3675 0 -3675 0 0
1440 0 1440 3675 0 3675 0 0 -1440z m-3880 -2140 l0 -290 -1735 0 -1735 0 0
290 0 290 1735 0 1735 0 0 -290z m3878 -352 c-5 -699 -6 -718 -68 -1028 -101
-507 -306 -973 -618 -1406 -46 -63 -85 -114 -87 -112 -2 2 7 37 21 78 35 107
71 296 83 435 14 157 14 1063 1 1196 -22 213 -80 417 -164 574 -222 418 -668
723 -1151 786 -115 15 -384 6 -485 -16 -388 -85 -725 -302 -953 -614 l-47 -63
0 406 0 406 1736 0 1735 0 -3 -642z m-1950 287 c114 -19 261 -65 367 -115 128
-61 129 -63 54 -84 -155 -43 -310 -135 -430 -255 -82 -83 -125 -141 -179 -243
l-35 -66 -40 74 c-83 158 -226 305 -383 395 -61 35 -112 56 -277 112 -14 5 72
53 164 92 93 40 208 73 311 90 106 18 336 18 448 0z m-943 -400 c87 -22 230
-96 302 -155 115 -95 214 -250 258 -405 14 -48 19 -115 22 -327 l5 -268 133 0
133 0 4 273 c5 301 10 332 83 477 123 244 370 409 640 427 l91 6 48 -54 c104
-116 193 -280 242 -444 35 -119 45 -358 20 -482 -103 -508 -524 -886 -1074
-964 -52 -7 -146 -10 -245 -6 -137 4 -180 9 -278 35 -448 116 -785 427 -903
835 -104 359 -19 719 243 1035 l36 43 90 -5 c50 -3 117 -12 150 -21z m-985
-525 l0 -290 -1709 0 -1709 0 -6 28 c-15 74 -37 278 -43 407 l-6 145 1736 0
1737 0 0 -290z m0 -990 l0 -290 -1549 0 -1548 0 -41 88 c-65 141 -182 451
-182 484 0 4 747 8 1660 8 l1660 0 0 -290z m625 -196 c102 -101 261 -212 390
-274 141 -67 384 -140 469 -140 14 0 28 -5 31 -10 9 -15 -77 -190 -135 -274
-66 -96 -179 -211 -283 -288 -87 -64 -262 -154 -367 -188 -79 -25 -247 -60
-289 -60 l-31 0 0 746 0 746 61 -84 c34 -45 103 -124 154 -174z m2372 -44 c-3
-193 -9 -269 -25 -356 -43 -224 -116 -434 -225 -648 -70 -137 -72 -140 -161
-214 -227 -189 -448 -334 -711 -467 -333 -169 -640 -272 -1005 -339 -107 -19
-400 -56 -450 -56 -6 0 -10 120 -10 334 l0 334 23 6 c12 3 35 6 50 6 49 0 227
40 322 71 424 140 771 469 910 861 l27 77 42 5 c22 3 70 8 106 11 293 28 612
169 852 378 65 56 178 186 224 256 l29 45 3 -30 c2 -16 2 -139 -1 -274z
m-2997 -750 l0 -290 -1189 0 -1189 0 -100 108 c-55 59 -124 136 -154 172 -67
80 -218 282 -218 293 0 4 641 7 1425 7 l1425 0 0 -290z m0 -1010 c0 -205 -4
-320 -10 -320 -5 0 -78 7 -162 16 -451 46 -872 168 -1274 369 -145 71 -345
187 -401 232 l-28 22 938 0 937 1 0 -320z"/>
<path d="M1170 6890 l0 -1030 185 0 185 0 2 787 3 786 264 -709 c145 -390 277
-744 293 -787 l30 -78 136 3 135 3 296 783 296 783 3 -785 2 -786 195 0 195 0
0 1030 0 1030 -297 -2 -297 -3 -255 -707 c-141 -390 -259 -708 -262 -708 -3 0
-122 319 -265 710 l-259 710 -292 0 -293 0 0 -1030z"/>
<path d="M3810 6891 l0 -1031 423 0 c449 0 540 7 682 50 275 85 425 281 425
554 0 82 -21 179 -51 237 -46 91 -168 191 -272 224 -29 9 -59 19 -67 21 -9 3
12 19 54 42 95 50 169 124 208 209 28 59 33 81 36 169 2 56 -1 125 -7 154 -29
134 -131 260 -263 324 -142 68 -150 69 -685 73 l-483 4 0 -1030z m874 684
c112 -30 159 -75 178 -169 27 -126 -38 -236 -167 -286 -54 -21 -80 -24 -277
-28 l-218 -4 0 257 0 258 213 -6 c149 -4 230 -10 271 -22z m-29 -826 c155 -19
240 -63 276 -144 25 -55 25 -185 0 -240 -27 -60 -98 -118 -178 -145 -62 -22
-89 -24 -310 -28 l-243 -4 0 286 0 286 183 0 c100 0 222 -5 272 -11z"/>
<path d="M5670 6890 l0 -1030 715 0 715 0 0 175 0 175 -520 0 -520 0 0 275 0
275 465 0 465 0 0 165 0 165 -465 0 -465 0 0 245 0 245 495 0 495 0 0 170 0
170 -690 0 -690 0 0 -1030z"/>
<path d="M4796 3846 c-54 -20 -85 -45 -121 -95 -24 -34 -30 -54 -33 -109 -4
-76 9 -117 53 -170 87 -104 263 -104 350 0 40 47 55 89 55 153 0 94 -42 165
-124 207 -51 26 -130 32 -180 14z"/>
<path d="M6226 3846 c-54 -20 -85 -45 -121 -95 -24 -34 -30 -54 -33 -109 -4
-76 9 -117 53 -170 87 -104 263 -104 350 0 40 47 55 89 55 153 0 94 -42 165
-124 207 -51 26 -130 32 -180 14z"/>
</g>
</svg>
